<svg fill="#000000" xmlns="http://www.w3.org/2000/svg"  viewBox="0 0 24 24" width="24px" height="24px"><path d="M16.125 1c-1.153.067-2.477.71-3.264 1.528-.711.744-1.271 1.848-1.042 2.917 1.253.033 2.511-.625 3.264-1.458C15.786 3.208 16.318 2.12 16.125 1zM16.194 5.444c-1.809 0-2.566 1.111-3.819 1.111-1.289 0-2.468-1.042-4.028-1.042C6.225 5.514 3 7.48 3 12.111 3 16.324 6.817 21 8.972 21c1.309.013 1.627-.824 3.403-.833 1.778-.013 2.161.844 3.472.833 1.476-.011 2.63-1.632 3.472-2.917.604-.92.851-1.391 1.319-2.431-3.473-.88-4.164-6.481 0-7.639C19.852 6.672 17.559 5.444 16.194 5.444z"/></svg>